{"title":"Wo shi shei (1998)(Who Am I, Jackie Chan) multisub [mkvonly]","uid":5207858,"size":1571473843,"categoryP":"video","categoryS":"movies","magnet":"?xt=urn:btih:372f9cea5eba9f76337df0d418bc5be8b25c31a1&amp;dn=Wo+shi+shei+%281998%29%28Who+Am+I%2C+Jackie+Chan%29+multisub+%5Bmkvonly%5D&amp;tr=udp%3A%2F%2Ftracker.openbittorrent.com%3A80&amp;tr=udp%3A%2F%2Fopen.demonii.com%3A1337&amp;tr=udp%3A%2F%2Ftracker.coppersurfer.tk%3A6969&amp;tr=udp%3A%2F%2Fexodus.desync.com%3A6969","seeders":0,"leechers":1,"uploader":"FatFreddy69","files":-1,"time":1260459371,"description":"Wo shi shei (1998).aka Who Am I?\n\nAction | Sci-Fi | Comedy | Adventure | Jackie Chan\n\nuser comments:\n &lt;a href=&quot; http://www.imdb.com/title/tt0127357/usercomments&quot; rel=&quot;nofollow&quot; target=&quot;_NEW&quot;&gt; http://www.imdb.com/title/tt0127357/usercomments&lt;/a&gt;\n\n\nA secret agent loses his memory after falling from a crashing helicopter. He is then chased by a number of other agency operatives, but he has no idea why.\n\n\nSubtitles:\nEnglish, Czech, Finnish, Greek, Hungarian, Romanian, Spanish, Swedish\n\nFormat                           : Matroska\nFile size                        : 1.46 GiB\nDuration                         : 1h 43mn\nOverall bit rate                 : 2 021 Kbps\n\nVideo:\nFormat/Info                      : AVC(Advanced Video Codec)\nDuration                         : 1h 43mn\nNominal bit rate                 : 1 571 Kbps\nDisplay aspect ratio             : 1.024 x 408 (2.510)\nFrame rate                       : 25.000 fps\nStream size                      : 1.11 GiB (76%)\nWriting library                  : x264 core 65\n\nAudio (English):\nFormat                           : AC-3\nBit rate mode                    : Constant\nBit rate                         : 448 Kbps\nChannel(s)                       : 6 channels\nChannel positions                : Front: L C R, Surround: L R, LFE\nSampling rate                    : 48.0 KHz\nStream size                      : 332 MiB (22%)\n","torrent":{"xt":"urn:btih:372f9cea5eba9f76337df0d418bc5be8b25c31a1","amp;dn":"Wo+shi+shei+%281998%29%28Who+Am+I%2C+Jackie+Chan%29+multisub+%5Bmkvonly%5D","amp;tr":["udp%3A%2F%2Ftracker.openbittorrent.com%3A80","udp%3A%2F%2Fopen.demonii.com%3A1337","udp%3A%2F%2Ftracker.coppersurfer.tk%3A6969","udp%3A%2F%2Fexodus.desync.com%3A6969"],"infoHash":"372f9cea5eba9f76337df0d418bc5be8b25c31a1","infoHashBuffer":{"type":"Buffer","data":[55,47,156,234,94,186,159,118,51,125,240,212,24,188,91,232,178,92,49,161]},"announce":[],"urlList":[]}}